<?xml version="1.0" encoding="utf-8"?>
<!-- Generator: Adobe Illustrator 26.1.0, SVG Export Plug-In . SVG Version: 6.00 Build 0)  -->
<svg version="1.1" id="Layer_1" xmlns="http://www.w3.org/2000/svg" xmlns:xlink="http://www.w3.org/1999/xlink" x="0px" y="0px"
	 viewBox="0 0 254.5 58.9" style="enable-background:new 0 0 254.5 58.9;" xml:space="preserve">
<style type="text/css">
	.st0{fill:url(#SVGID_1_);}
	.st1{fill:url(#SVGID_00000103228638094668448590000002486707531122975377_);}
	.st2{fill:url(#SVGID_00000057134417598684312690000013130438711298722973_);}
	.st3{fill:url(#SVGID_00000157992532211152005330000006416737512964116894_);}
	.st4{fill:url(#SVGID_00000003825634872655652840000004404593252552427711_);}
	.st5{fill:url(#SVGID_00000036239350868841412250000010786132277919345555_);}
	.st6{fill:url(#SVGID_00000087414568592108982250000011107406475589659267_);}
	.st7{fill:#E5FFE8;}
</style>
<g>
	<g>
		
			<linearGradient id="SVGID_1_" gradientUnits="userSpaceOnUse" x1="-9.536743e-07" y1="-746.9745" x2="44" y2="-746.9745" gradientTransform="matrix(1 0 0 -1 0 -722.7245)">
			<stop  offset="0" style="stop-color:#0D8016"/>
			<stop  offset="1" style="stop-color:#1AFF2D"/>
		</linearGradient>
		<path class="st0" d="M41,3.5c0.5,0.5,2.5,2.5,3,3l-5,10c-1.6-1-3.4-1.8-5.3-2.3c-1.9-0.5-3.9-0.8-5.9-0.8c-1.3,0-2.4,0.1-3.3,0.4
			c-0.9,0.3-1.6,0.6-2,1s-0.7,0.9-0.7,1.3c0,0.6,0.4,1.1,1,1.5c0.7,0.4,1.6,0.8,2.8,1c1.2,0.3,2.4,0.6,3.8,0.9s2.8,0.7,4.1,1.2
			c1.4,0.5,2.7,1.1,3.8,1.9c1.2,0.8,2.1,1.8,2.8,3s1,2.7,1,4.5c0,3-0.8,5.7-2.5,8s-4.1,4.1-7.1,5.3c-3,1.5-6.7,2.1-10.9,2.1
			c-2.4,0-4.7-0.2-6.9-0.5s-4.2-0.8-6-1.5c-1.8-0.6-3.4-1.3-4.7-2.1l-3-3l8.3-7.1c1.5,0.9,3,1.6,4.6,2.1c1.5,0.6,3.1,1,4.6,1.3
			s3.1,0.4,4.6,0.4c1.2,0,2.2-0.1,3-0.3s1.4-0.5,1.8-0.8c0.4-0.4,0.6-0.8,0.6-1.3c0-0.6-0.3-1.1-1-1.5s-1.6-0.7-2.8-1
			c-1.1-0.3-2.4-0.6-3.8-1c-1.4-0.3-2.8-0.8-4.2-1.3s-2.7-1.2-3.8-2s-2.1-1.8-2.8-3.1c-0.7-1.2-1-2.8-1-4.5c0-3.1,0.8-5.8,2.5-8.1
			s4-4.1,7.1-5.3c3.1-1.3,6.8-1.9,11-1.9"/>
		
			<linearGradient id="SVGID_00000013903190891783064240000008360825004201024389_" gradientUnits="userSpaceOnUse" x1="37" y1="-755.5245" x2="82.3" y2="-755.5245" gradientTransform="matrix(1 0 0 -1 0 -722.7245)">
			<stop  offset="0" style="stop-color:#0D8016"/>
			<stop  offset="1" style="stop-color:#1AFF2D"/>
		</linearGradient>
		<path style="fill:url(#SVGID_00000013903190891783064240000008360825004201024389_);" d="M40,55.9l-3-3l8.6-43.2H58l3,3L60.1,17
			l-2.2,11.7l-1.7,11.5l-3.1,15.7H40z M65.2,45.2c-2.4,0-4.6-0.5-6.4-1.5s-3.2-2.7-4-5.1c-0.8-2.4-0.9-5.7-0.2-9.9
			c0.6-3.5,1.5-6.4,2.8-8.9s2.9-4.4,4.9-5.7s4.2-2,6.8-2c2.1,0,4.2,0.6,6.2,1.7s3.7,2.8,5,5s2,4.9,2,8c0,2.6-0.4,5-1.3,7.3
			c-0.9,2.2-2.1,4.2-3.7,5.8c-1.6,1.7-3.4,2.9-5.4,3.8C69.7,44.7,67.5,45.2,65.2,45.2z M63.1,34.8c1.2,0,2.2-0.3,3-0.9
			c0.9-0.6,1.5-1.4,2-2.5c0.5-1.1,0.7-2.4,0.7-3.8c0-1.5-0.4-2.7-1.3-3.6c-0.8-0.9-2-1.4-3.5-1.4c-1.1,0-2.1,0.3-3,0.9
			s-1.6,1.4-2,2.5c-0.5,1.1-0.7,2.4-0.7,3.8c0,1.5,0.4,2.7,1.3,3.6C60.4,34.4,61.6,34.8,63.1,34.8z"/>
		
			<linearGradient id="SVGID_00000077307270892398914040000003723687934104197541_" gradientUnits="userSpaceOnUse" x1="84.6" y1="-751.4245" x2="120.4" y2="-751.4245" gradientTransform="matrix(1 0 0 -1 0 -722.7245)">
			<stop  offset="0" style="stop-color:#0D8016"/>
			<stop  offset="1" style="stop-color:#1AFF2D"/>
		</linearGradient>
		<path style="fill:url(#SVGID_00000077307270892398914040000003723687934104197541_);" d="M102.1,45.2c-3.5,0-6.6-0.6-9.2-1.8
			s-4.7-2.9-6.1-5.1c-1.5-2.2-2.2-4.8-2.2-7.8c0-3.5,0.8-6.6,2.4-9.4s3.9-4.9,6.9-6.5s6.4-2.4,10.4-2.4c3.4,0,6.3,0.6,8.7,1.8
			c2.4,1.2,4.3,2.9,5.5,5c1.3,2.1,1.9,4.5,1.9,7.3c0,1-0.1,1.9-0.2,2.9c-0.1,0.9-0.3,1.8-0.5,2.7H94.9l1.2-6.4h17.5l-5.5,1.7
			c0.3-1.2,0.3-2.3,0-3.2c-0.3-0.9-0.9-1.6-1.7-2c-0.8-0.5-1.7-0.7-2.9-0.7c-1.6,0-2.9,0.4-3.8,1.3s-1.6,2-2,3.3
			c-0.4,1.4-0.6,2.8-0.6,4.3c0,2,0.5,3.4,1.6,4.2s2.7,0.8,4.7,1.3c2.6,0.6,3.7-3.9,4.9-4.3c2,2,0,0,2,2l5.5,8
			c-2.2,1.5-4.4,2.5-6.8,3.1C106.8,44.9,104.5,45.2,102.1,45.2z"/>
		
			<linearGradient id="SVGID_00000098935953192936096570000012080098906571016344_" gradientUnits="userSpaceOnUse" x1="122.1" y1="-751.3745" x2="158" y2="-751.3745" gradientTransform="matrix(1 0 0 -1 0 -722.7245)">
			<stop  offset="0" style="stop-color:#0D8016"/>
			<stop  offset="1" style="stop-color:#1AFF2D"/>
		</linearGradient>
		<path style="fill:url(#SVGID_00000098935953192936096570000012080098906571016344_);" d="M139.6,45.2c-3.5,0-6.5-0.6-9.2-1.8
			c-2.6-1.2-4.6-2.9-6.1-5.2c-1.4-2.2-2.2-4.8-2.2-7.8c0-3.5,0.9-6.6,2.6-9.4s4.1-4.9,7.1-6.5s6.5-2.4,10.4-2.4
			c3.8,0,7.1,0.8,9.9,2.5c2.8,1.7,4.8,3.9,5.9,6.8l-11.2,5.1c-2-2,0,0-2-2c-0.2-0.2,0.2,0.2-1-1c-0.8-0.8-1.1-1-2.3-1
			s-2.2,0.3-3.1,0.9c-0.9,0.6-1.7,1.4-2.2,2.5c-0.5,1-0.8,2.3-0.8,3.7c0,1.5,0.4,2.8,1.3,3.7c0.9,1,2.1,1.5,3.7,1.5
			c1.3,0,2.4-0.3,3.4-0.9c1-0.6,1.8-1.7,2.6-3.1l7.6,3.6l2,2c-1.6,2.8-3.8,5-6.6,6.5C146.7,44.4,143.4,45.2,139.6,45.2z"/>
		
			<linearGradient id="SVGID_00000178904390616180287570000003280083061027690146_" gradientUnits="userSpaceOnUse" x1="154.8" y1="-746.5745" x2="183.8" y2="-746.5745" gradientTransform="matrix(1 0 0 -1 0 -722.7245)">
			<stop  offset="0" style="stop-color:#0D8016"/>
			<stop  offset="1" style="stop-color:#1AFF2D"/>
		</linearGradient>
		<path style="fill:url(#SVGID_00000178904390616180287570000003280083061027690146_);" d="M157.8,24.1l-3-3l4.9-6.6l21.1-3l3,3
			l-1.9,9.6H157.8z M171.9,45.2c-2.7,0-5-0.5-6.9-1.5s-3.2-2.5-4-4.5s-0.9-4.3-0.3-7.1L166,5.5l10.2-3l3,3L173.9,32
			c-0.2,1.1-0.1,1.9,0.3,2.4c0.4,0.5,1.1,0.8,2,0.8c0.5,0-0.6-3.7-0.1-3.8c2,2,1,1,3,3l1.5,8.9c-1.2,0.7-2.6,1.1-4.1,1.4
			C175,45.1,173.4,45.2,171.9,45.2z"/>
		
			<linearGradient id="SVGID_00000053514656827920364450000014829477262785076148_" gradientUnits="userSpaceOnUse" x1="180.4" y1="-749.5245" x2="212.8" y2="-749.5245" gradientTransform="matrix(1 0 0 -1 0 -722.7245)">
			<stop  offset="0" style="stop-color:#0D8016"/>
			<stop  offset="1" style="stop-color:#1AFF2D"/>
		</linearGradient>
		<path style="fill:url(#SVGID_00000053514656827920364450000014829477262785076148_);" d="M209.8,9.1c2,2,1,1,3,3l-2.3,11.7
			c-0.5-0.1-1-0.1-1.5-0.2c-0.4,0-0.9-0.1-1.4-0.1c-2.2,0-3.9,0.5-5.3,1.5c-1.3,1-2.2,2.6-2.7,4.8l-3,14.7h-13.2l-3-3l0,0l9.4-28.8
			l9.4-3l3,3l-1.8,9l-1.2-2.6c1.3-2.5,3.2-4.3,5.5-5.4"/>
		
			<linearGradient id="SVGID_00000060737697391123626060000001282448287119902103_" gradientUnits="userSpaceOnUse" x1="211.4" y1="-750.1745" x2="251.5" y2="-750.1745" gradientTransform="matrix(1 0 0 -1 0 -722.7245)">
			<stop  offset="0" style="stop-color:#0D8016"/>
			<stop  offset="1" style="stop-color:#1AFF2D"/>
		</linearGradient>
		<path style="fill:url(#SVGID_00000060737697391123626060000001282448287119902103_);" d="M224.6,45.2c-2.1,0-4.2-0.6-6.2-1.7
			s-3.7-2.8-5-5s-2-4.9-2-8c0-2.6,0.4-5.1,1.3-7.3s2.1-4.1,3.7-5.8c1.6-1.7,3.4-2.9,5.4-3.8s4.2-1.4,6.5-1.4c2.5,0,4.6,0.5,6.5,1.5
			c1.8,1,3.1,2.7,3.9,5.1c0.8,2.4,0.9,5.7,0.2,9.9c-0.5,3.4-1.5,6.4-2.8,8.9s-2.9,4.4-4.9,5.7C229.4,44.5,227.2,45.2,224.6,45.2z
			 M229.5,34.8c1.2,0,2.2-0.3,3-0.9c0.9-0.6,1.5-1.4,2-2.5c0.5-1.1,0.7-2.4,0.7-3.8c0-1.5-0.4-2.7-1.3-3.6c-0.8-0.9-2-1.4-3.5-1.4
			c-1.1,0-2.1,0.3-3,0.9s-1.6,1.4-2,2.5c-0.5,1.1-0.7,2.4-0.7,3.8c0,1.5,0.4,2.7,1.3,3.6C226.9,34.4,228,34.8,229.5,34.8z
			 M232.6,44.6l-2-2l2.9-2.3l2.2-11.7l1.7-11.5l0.9-4.4l10.2-3l3,3l-6.4,31.9H232.6z"/>
	</g>
</g>
<g>
	<g>
		<path class="st7" d="M17.6,42.5c-2.4,0-4.7-0.2-6.9-0.5s-4.2-0.8-6-1.5c-1.8-0.6-3.4-1.3-4.7-2.1l5.3-10.1c1.5,0.9,3,1.6,4.6,2.1
			c1.5,0.6,3.1,1,4.6,1.3s3.1,0.4,4.6,0.4c1.2,0,2.2-0.1,3-0.3s1.4-0.5,1.8-0.8c0.4-0.4,0.6-0.8,0.6-1.3c0-0.6-0.3-1.1-1-1.5
			s-1.6-0.7-2.8-1c-1.1-0.3-2.4-0.6-3.8-1c-1.4-0.3-2.8-0.8-4.2-1.3s-2.7-1.2-3.8-2s-2.1-1.8-2.8-3.1c-0.7-1.2-1-2.8-1-4.5
			c0-3.1,0.8-5.8,2.5-8.1s4-4.1,7.1-5.3c3.1-1.3,6.8-1.9,11-1.9c3,0,5.9,0.3,8.5,0.9s4.9,1.5,6.8,2.6l-5,10c-1.6-1-3.4-1.8-5.3-2.3
			c-1.9-0.5-3.9-0.8-5.9-0.8c-1.3,0-2.4,0.1-3.3,0.4c-0.9,0.3-1.6,0.6-2,1s-0.7,0.9-0.7,1.3c0,0.6,0.4,1.1,1,1.5
			c0.7,0.4,1.6,0.8,2.8,1c1.2,0.3,2.4,0.6,3.8,0.9c1.4,0.3,2.8,0.7,4.1,1.2c1.4,0.5,2.7,1.1,3.8,1.9c1.2,0.8,2.1,1.8,2.8,3
			s1,2.7,1,4.5c0,3-0.8,5.7-2.5,8s-4.1,4.1-7.1,5.3C25.5,41.9,21.8,42.5,17.6,42.5z"/>
		<path class="st7" d="M37,52.9l8.6-43.2H58L57.1,14l-2.2,11.7l-1.7,11.5l-3.1,15.7H37z M62.2,42.2c-2.4,0-4.6-0.5-6.4-1.5
			s-3.2-2.7-4-5.1c-0.8-2.4-0.9-5.7-0.2-9.9c0.6-3.5,1.5-6.4,2.8-8.9s2.9-4.4,4.9-5.7s4.2-2,6.8-2c2.1,0,4.2,0.6,6.2,1.7
			s3.7,2.8,5,5s2,4.9,2,8c0,2.6-0.4,5-1.3,7.3c-0.9,2.2-2.1,4.2-3.7,5.8c-1.6,1.7-3.4,2.9-5.4,3.8C66.7,41.7,64.5,42.2,62.2,42.2z
			 M60.1,31.8c1.2,0,2.2-0.3,3-0.9c0.9-0.6,1.5-1.4,2-2.5s0.7-2.4,0.7-3.8c0-1.5-0.4-2.7-1.3-3.6c-0.8-0.9-2-1.4-3.5-1.4
			c-1.1,0-2.1,0.3-3,0.9s-1.6,1.4-2,2.5c-0.5,1.1-0.7,2.4-0.7,3.8c0,1.5,0.4,2.7,1.3,3.6C57.4,31.4,58.6,31.8,60.1,31.8z"/>
		<path class="st7" d="M99.1,42.2c-3.5,0-6.6-0.6-9.2-1.8s-4.7-2.9-6.1-5.1c-1.5-2.2-2.2-4.8-2.2-7.8c0-3.5,0.8-6.6,2.4-9.4
			s3.9-4.9,6.9-6.5s6.4-2.4,10.4-2.4c3.4,0,6.3,0.6,8.7,1.8c2.4,1.2,4.3,2.9,5.5,5c1.3,2.1,1.9,4.5,1.9,7.3c0,1-0.1,1.9-0.2,2.9
			c-0.1,0.9-0.3,1.8-0.5,2.7H91.9l1.2-6.4h17.5l-5.5,1.7c0.3-1.2,0.3-2.3,0-3.2c-0.3-0.9-0.9-1.6-1.7-2c-0.8-0.5-1.7-0.7-2.9-0.7
			c-1.6,0-2.9,0.4-3.8,1.3s-1.6,2-2,3.3c-0.4,1.4-0.6,2.8-0.6,4.3c0,2,0.5,3.4,1.6,4.2c1.1,0.8,2.6,1.3,4.7,1.3
			c1.2,0,2.4-0.2,3.6-0.6c1.2-0.4,2.3-0.9,3.3-1.7l5.5,8c-2.2,1.5-4.4,2.5-6.8,3.1C103.8,41.9,101.5,42.2,99.1,42.2z"/>
		<path class="st7" d="M136.6,42.2c-3.5,0-6.5-0.6-9.2-1.8c-2.6-1.2-4.6-2.9-6.1-5.2c-1.4-2.2-2.2-4.8-2.2-7.8
			c0-3.5,0.9-6.6,2.6-9.4s4.1-4.9,7.1-6.5c3-1.6,6.5-2.4,10.4-2.4c3.8,0,7.1,0.8,9.9,2.5c2.8,1.7,4.8,3.9,5.9,6.8l-11.2,5.1
			c-0.5-1.5-1.3-2.5-2.2-3.1s-1.9-0.9-3.1-0.9c-1.2,0-2.2,0.3-3.1,0.9c-0.9,0.6-1.7,1.4-2.2,2.5c-0.5,1-0.8,2.3-0.8,3.7
			c0,1.5,0.4,2.8,1.3,3.7c0.9,1,2.1,1.5,3.7,1.5c1.3,0,2.4-0.3,3.4-0.9s1.8-1.7,2.6-3.1l9.6,5.6c-1.6,2.8-3.8,5-6.6,6.5
			C143.7,41.4,140.4,42.2,136.6,42.2z"/>
		<path class="st7" d="M154.8,21.1l1.9-9.6h24.1l-1.9,9.6H154.8z M168.9,42.2c-2.7,0-5-0.5-6.9-1.5s-3.2-2.5-4-4.5s-0.9-4.3-0.3-7.1
			L163,2.5h13.2L170.9,29c-0.2,1.1-0.1,1.9,0.3,2.4c0.4,0.5,1.1,0.8,2,0.8c0.5,0,1-0.1,1.5-0.2c0.4-0.1,0.9-0.3,1.4-0.6l1.5,8.9
			c-1.2,0.7-2.6,1.1-4.1,1.4C172,42.1,170.4,42.2,168.9,42.2z"/>
		<path class="st7" d="M180.4,41.5l6.4-31.8h12.4l-1.8,9l-1.2-2.6c1.3-2.5,3.2-4.3,5.5-5.4c2.4-1.1,5-1.6,8.1-1.6l-2.3,11.7
			c-0.5-0.1-1-0.1-1.5-0.2c-0.4,0-0.9-0.1-1.4-0.1c-2.2,0-3.9,0.5-5.3,1.5c-1.3,1-2.2,2.6-2.7,4.8l-3,14.7H180.4L180.4,41.5z"/>
		<path class="st7" d="M221.6,42.2c-2.1,0-4.2-0.6-6.2-1.7s-3.7-2.8-5-5s-2-4.9-2-8c0-2.6,0.4-5.1,1.3-7.3s2.1-4.1,3.7-5.8
			c1.6-1.7,3.4-2.9,5.4-3.8s4.2-1.4,6.5-1.4c2.5,0,4.6,0.5,6.5,1.5c1.8,1,3.1,2.7,3.9,5.1c0.8,2.4,0.9,5.7,0.2,9.9
			c-0.5,3.4-1.5,6.4-2.8,8.9s-2.9,4.4-4.9,5.7C226.4,41.5,224.2,42.2,221.6,42.2z M226.5,31.8c1.2,0,2.2-0.3,3-0.9
			c0.9-0.6,1.5-1.4,2-2.5s0.7-2.4,0.7-3.8c0-1.5-0.4-2.7-1.3-3.6c-0.8-0.9-2-1.4-3.5-1.4c-1.1,0-2.1,0.3-3,0.9s-1.6,1.4-2,2.5
			c-0.5,1.1-0.7,2.4-0.7,3.8c0,1.5,0.4,2.7,1.3,3.6C223.9,31.4,225,31.8,226.5,31.8z M229.6,41.6l0.9-4.3l2.2-11.7l1.7-11.5l0.9-4.4
			h13.2l-6.4,31.9H229.6z"/>
	</g>
</g>
</svg>
