<?xml version="1.0" encoding="utf-8"?>
<!-- Generator: Adobe Illustrator 25.0.1, SVG Export Plug-In . SVG Version: 6.00 Build 0)  -->
<svg version="1.1" id="Layer_1" xmlns="http://www.w3.org/2000/svg" xmlns:xlink="http://www.w3.org/1999/xlink" x="0px" y="0px"
	 viewBox="0 0 254.5 58.9" style="enable-background:new 0 0 254.5 58.9;" xml:space="preserve">
<style type="text/css">
	.st0{fill:#80630D;}
	.st1{fill:#BF9413;}
	.st2{fill:#FFC61A;}
	.st3{fill:#FFF9E5;}
</style>
<g>
	<g>
		<path class="st0" d="M23.6,48.5c-2.4,0-4.7-0.2-6.9-0.5s-4.2-0.8-6-1.5c-1.8-0.6-3.4-1.3-4.7-2.1l-2-2l7.3-8.1
			c1.5,0.9,3,1.6,4.6,2.1c1.5,0.6,3.1,1,4.6,1.3s3.1,0.4,4.6,0.4c1.2,0,2.2-0.1,3-0.3s1.4-0.5,1.8-0.8c0.4-0.4,0.6-0.8,0.6-1.3
			c0-0.6-0.3-1.1-1-1.5s-1.6-0.7-2.8-1c-1.1-0.3-2.4-0.6-3.8-1c-1.4-0.3-2.8-0.8-4.2-1.3s-2.7-1.2-3.8-2s-2.1-1.8-2.8-3.1
			c-0.7-1.2-1-2.8-1-4.5c0-3.1,0.8-5.8,2.5-8.1s4-4.1,7.1-5.3c3.1-1.3,6.8-1.9,11-1.9c3,0,11.4-0.4,13.3,1.5c2,2,0,0,2,2l-5,10
			c-1.6-1-3.4-1.8-5.3-2.3c-1.9-0.5-3.9-0.8-5.9-0.8c-1.3,0-2.4,0.1-3.3,0.4s-1.6,0.6-2,1s-0.7,0.9-0.7,1.3c0,0.6,0.4,1.1,1,1.5
			c0.7,0.4,1.6,0.8,2.8,1c1.2,0.3,2.4,0.6,3.8,0.9s2.8,0.7,4.1,1.2c1.4,0.5,2.7,1.1,3.8,1.9c1.2,0.8,2.1,1.8,2.8,3s1,2.7,1,4.5
			c0,3-0.8,5.7-2.5,8s-4.1,4.1-7.1,5.3C31.5,47.9,27.8,48.5,23.6,48.5z"/>
		<path class="st0" d="M43,58.9l-2-2l7.5-41.2H64L63.1,20l-2.2,11.7l-1.7,11.5l-3.1,15.7H43z M68.2,48.2c-2.4,0-4.6-0.5-6.4-1.5
			s-3.2-2.7-4-5.1c-0.8-2.4-0.9-5.7-0.2-9.9c0.6-3.5,1.5-6.4,2.8-8.9s2.9-4.4,4.9-5.7s4.2-2,6.8-2c2.1,0,4.2,0.6,6.2,1.7
			s3.7,2.8,5,5s2,4.9,2,8c0,2.6-0.4,5-1.3,7.3c-0.9,2.2-2.1,4.2-3.7,5.8c-1.6,1.7-3.4,2.9-5.4,3.8C72.7,47.7,70.5,48.2,68.2,48.2z
			 M66.1,37.8c1.2,0,2.2-0.3,3-0.9c0.9-0.6,1.5-1.4,2-2.5s0.7-2.4,0.7-3.8c0-1.5-0.4-2.7-1.3-3.6c-0.8-0.9-2-1.4-3.5-1.4
			c-1.1,0-2.1,0.3-3,0.9s-1.6,1.4-2,2.5c-0.5,1.1-0.7,2.4-0.7,3.8c0,1.5,0.4,2.7,1.3,3.6C63.4,37.4,64.6,37.8,66.1,37.8z"/>
		<path class="st0" d="M105.1,48.2c-3.5,0-6.6-0.6-9.2-1.8s-4.7-2.9-6.1-5.1c-1.5-2.2-2.2-4.8-2.2-7.8c0-3.5,0.8-6.6,2.4-9.4
			s3.9-4.9,6.9-6.5s6.4-2.4,10.4-2.4c3.4,0,6.3,0.6,8.7,1.8c2.4,1.2,4.3,2.9,5.5,5c1.3,2.1,1.9,4.5,1.9,7.3c0,1-0.1,1.9-0.2,2.9
			c-0.1,0.9-0.3,1.8-0.5,2.7H97.9l1.2-6.4h17.5l-5.5,1.7c0.3-1.2,0.3-2.3,0-3.2c-0.3-0.9-0.9-1.6-1.7-2c-0.8-0.5-1.7-0.7-2.9-0.7
			c-1.6,0-2.9,0.4-3.8,1.3s-1.6,2-2,3.3c-0.4,1.4-0.6,2.8-0.6,4.3c0,2,0.5,3.4,1.6,4.2s2.6,1.3,4.7,1.3c1.2,0,3.7-3.9,4.9-4.3
			c2,2,0,0,2,2l5.5,8c-2.2,1.5-4.4,2.5-6.8,3.1C109.8,47.9,107.5,48.2,105.1,48.2z"/>
		<path class="st0" d="M142.6,48.2c-3.5,0-6.5-0.6-9.2-1.8c-2.6-1.2-4.6-2.9-6.1-5.2c-1.4-2.2-2.2-4.8-2.2-7.8
			c0-3.5,0.9-6.6,2.6-9.4s4.1-4.9,7.1-6.5s6.5-2.4,10.4-2.4c3.8,0,7.1,0.8,9.9,2.5c2.8,1.7,4.8,3.9,5.9,6.8l-11.2,5.1c-2-2,0,0-2-2
			c-0.5-0.5,0.3-0.8-0.2-1.1c-0.9-0.6-1.9-0.9-3.1-0.9c-1.2,0-2.2,0.3-3.1,0.9c-0.9,0.6-1.7,1.4-2.2,2.5c-0.5,1-0.8,2.3-0.8,3.7
			c0,1.5,0.4,2.8,1.3,3.7c0.9,1,2.1,1.5,3.7,1.5c1.3,0,2.4-0.3,3.4-0.9c1-0.6,1.8-1.7,2.6-3.1l7.6,3.6l2,2c-1.6,2.8-3.8,5-6.6,6.5
			C149.7,47.4,146.4,48.2,142.6,48.2z"/>
		<path class="st0" d="M160.8,27.1l-1.8-1.8l3.7-7.8l22.1-2l2,2l-1.9,9.6H160.8z M174.9,48.2c-2.7,0-5-0.5-6.9-1.5s-3.2-2.5-4-4.5
			s-0.9-4.3-0.3-7.1L169,8.5l11.2-2l2,2L176.9,35c-0.2,1.1-0.1,1.9,0.3,2.4c0.4,0.5,1.1,0.8,2,0.8c0.5,0,0.4-2.7,0.9-2.8
			c2,2,0,0,2,2l1.5,8.9c-1.2,0.7-2.6,1.1-4.1,1.4C178,48.1,176.4,48.2,174.9,48.2z"/>
		<path class="st0" d="M184.4,45.5l8.4-29.8h12.4l-1.8,9l-1.2-2.6c1.3-2.5,3.2-4.3,5.5-5.4c2-0.9,4.4-5.3,6.1-3.6c2,2,0,0,2,2
			l-2.3,11.7c-0.5-0.1-1-0.1-1.5-0.2c-0.4,0-0.9-0.1-1.4-0.1c-2.2,0-3.9,0.5-5.3,1.5c-1.3,1-2.2,2.6-2.7,4.8l-3,14.7h-13.2
			L184.4,45.5z"/>
		<path class="st0" d="M227.6,48.2c-2.1,0-4.2-0.6-6.2-1.7s-3.7-2.8-5-5s-2-4.9-2-8c0-2.6,0.4-5.1,1.3-7.3s2.1-4.1,3.7-5.8
			c1.6-1.7,3.4-2.9,5.4-3.8c2-0.9,4.2-1.4,6.5-1.4c2.5,0,4.6,0.5,6.5,1.5c1.8,1,3.1,2.7,3.9,5.1c0.8,2.4,0.9,5.7,0.2,9.9
			c-0.5,3.4-1.5,6.4-2.8,8.9s-2.9,4.4-4.9,5.7C232.4,47.5,230.2,48.2,227.6,48.2z M232.5,37.8c1.2,0,2.2-0.3,3-0.9
			c0.9-0.6,1.5-1.4,2-2.5s0.7-2.4,0.7-3.8c0-1.5-0.4-2.7-1.3-3.6c-0.8-0.9-2-1.4-3.5-1.4c-1.1,0-2.1,0.3-3,0.9s-1.6,1.4-2,2.5
			c-0.5,1.1-0.7,2.4-0.7,3.8c0,1.5,0.4,2.7,1.3,3.6C229.9,37.4,231,37.8,232.5,37.8z M235.6,47.6l-2-2l2.9-2.3l2.2-11.7l1.7-11.5
			l0.9-4.4l11.2-2l2,2l-6.4,31.9H235.6z"/>
	</g>
</g>
<g>
	<g>
		<path class="st1" d="M21.6,46.5c-2.4,0-4.7-0.2-6.9-0.5s-4.2-0.8-6-1.5c-1.8-0.6-3.4-1.3-4.7-2.1l-2-2l7.3-8.1
			c1.5,0.9,3,1.6,4.6,2.1c1.5,0.6,3.1,1,4.6,1.3s3.1,0.4,4.6,0.4c1.2,0,2.2-0.1,3-0.3s1.4-0.5,1.8-0.8c0.4-0.4,0.6-0.8,0.6-1.3
			c0-0.6-0.3-1.1-1-1.5s-1.6-0.7-2.8-1c-1.1-0.3-2.4-0.6-3.8-1c-1.4-0.3-2.8-0.8-4.2-1.3s-2.7-1.2-3.8-2s-2.1-1.8-2.8-3.1
			c-0.7-1.2-1-2.8-1-4.5c0-3.1,0.8-5.8,2.5-8.1s4-4.1,7.1-5.3c3.1-1.3,6.8-1.9,11-1.9c3,0,11.4-0.4,13.3,1.5c1.8,1.8,0.2,0.2,2,2
			l-5,10c-1.6-1-3.4-1.8-5.3-2.3c-1.9-0.5-3.9-0.8-5.9-0.8c-1.3,0-2.4,0.1-3.3,0.4c-0.9,0.3-1.6,0.6-2,1c-0.4,0.4-0.7,0.9-0.7,1.3
			c0,0.6,0.4,1.1,1,1.5c0.7,0.4,1.6,0.8,2.8,1c1.2,0.3,2.4,0.6,3.8,0.9s2.8,0.7,4.1,1.2c1.4,0.5,2.7,1.1,3.8,1.9
			c1.2,0.8,2.1,1.8,2.8,3s1,2.7,1,4.5c0,3-0.8,5.7-2.5,8s-4.1,4.1-7.1,5.3C29.5,45.9,25.8,46.5,21.6,46.5z"/>
		<path class="st1" d="M41,56.9l-2-2l8-41.2h15L61.1,18l-2.2,11.7l-1.7,11.5l-3.1,15.7H41z M66.2,46.2c-2.4,0-4.6-0.5-6.4-1.5
			s-3.2-2.7-4-5.1c-0.8-2.4-0.9-5.7-0.2-9.9c0.6-3.5,1.5-6.4,2.8-8.9s2.9-4.4,4.9-5.7s4.2-2,6.8-2c2.1,0,4.2,0.6,6.2,1.7
			s3.7,2.8,5,5s2,4.9,2,8c0,2.6-0.4,5-1.3,7.3c-0.9,2.2-2.1,4.2-3.7,5.8c-1.6,1.7-3.4,2.9-5.4,3.8C70.7,45.7,68.5,46.2,66.2,46.2z
			 M64.1,35.8c1.2,0,2.2-0.3,3-0.9c0.9-0.6,1.5-1.4,2-2.5s0.7-2.4,0.7-3.8c0-1.5-0.4-2.7-1.3-3.6c-0.8-0.9-2-1.4-3.5-1.4
			c-1.1,0-2.1,0.3-3,0.9s-1.6,1.4-2,2.5c-0.5,1.1-0.7,2.4-0.7,3.8c0,1.5,0.4,2.7,1.3,3.6C61.4,35.4,62.6,35.8,64.1,35.8z"/>
		<path class="st1" d="M103.1,46.2c-3.5,0-6.6-0.6-9.2-1.8s-4.7-2.9-6.1-5.1c-1.5-2.2-2.2-4.8-2.2-7.8c0-3.5,0.8-6.6,2.4-9.4
			s3.9-4.9,6.9-6.5s6.4-2.4,10.4-2.4c3.4,0,6.3,0.6,8.7,1.8c2.4,1.2,4.3,2.9,5.5,5c1.3,2.1,1.9,4.5,1.9,7.3c0,1-0.1,1.9-0.2,2.9
			c-0.1,0.9-0.3,1.8-0.5,2.7H95.9l1.2-6.4h17.5l-5.5,1.7c0.3-1.2,0.3-2.3,0-3.2c-0.3-0.9-0.9-1.6-1.7-2c-0.8-0.5-1.7-0.7-2.9-0.7
			c-1.6,0-2.9,0.4-3.8,1.3s-1.6,2-2,3.3c-0.4,1.4-0.6,2.8-0.6,4.3c0,2,0.5,3.4,1.6,4.2s2.6,1.3,4.7,1.3c1.2,0,3.7-3.9,4.9-4.3
			c2,2,0,0,2,2l5.5,8c-2.2,1.5-4.4,2.5-6.8,3.1C107.8,45.9,105.5,46.2,103.1,46.2z"/>
		<path class="st1" d="M140.6,46.2c-3.5,0-6.5-0.6-9.2-1.8c-2.6-1.2-4.6-2.9-6.1-5.2c-1.4-2.2-2.2-4.8-2.2-7.8
			c0-3.5,0.9-6.6,2.6-9.4s4.1-4.9,7.1-6.5s6.5-2.4,10.4-2.4c3.8,0,7.1,0.8,9.9,2.5c2.8,1.7,4.8,3.9,5.9,6.8l-11.2,5.1c-2-2,0,0-2-2
			c-0.5-0.5,0.3-0.8-0.2-1.1c-0.9-0.6-1.9-0.9-3.1-0.9c-1.2,0-2.2,0.3-3.1,0.9c-0.9,0.6-1.7,1.4-2.2,2.5c-0.5,1-0.8,2.3-0.8,3.7
			c0,1.5,0.4,2.8,1.3,3.7c0.9,1,2.1,1.5,3.7,1.5c1.3,0,2.4-0.3,3.4-0.9c1-0.6,1.8-1.7,2.6-3.1l7.6,3.6l2,2c-1.6,2.8-3.8,5-6.6,6.5
			C147.7,45.4,144.4,46.2,140.6,46.2z"/>
		<path class="st1" d="M158.8,25.1l-2-2l3.9-7.6l22.1-2l2,2l-1.9,9.6H158.8z M172.9,46.2c-2.7,0-5-0.5-6.9-1.5s-3.2-2.5-4-4.5
			s-0.9-4.3-0.3-7.1L167,6.5l11.2-2l2,2L174.9,33c-0.2,1.1-0.1,1.9,0.3,2.4c0.4,0.5,1.1,0.8,2,0.8c0.5,0,0.4-2.7,0.9-2.8
			c2,2,0,0,2,2l1.5,8.9c-1.2,0.7-2.6,1.1-4.1,1.4C176,46.1,174.4,46.2,172.9,46.2z"/>
		<path class="st1" d="M182.4,43.5l8.4-29.8h12.4l-1.8,9l-1.2-2.6c1.3-2.5,3.2-4.3,5.5-5.4c2-0.9,4.4-5.3,6.1-3.6c2,2,0,0,2,2
			l-2.3,11.7c-0.5-0.1-1-0.1-1.5-0.2c-0.4,0-0.9-0.1-1.4-0.1c-2.2,0-3.9,0.5-5.3,1.5c-1.3,1-2.2,2.6-2.7,4.8l-3,14.7h-13.2
			L182.4,43.5z"/>
		<path class="st1" d="M225.6,46.2c-2.1,0-4.2-0.6-6.2-1.7s-3.7-2.8-5-5s-2-4.9-2-8c0-2.6,0.4-5.1,1.3-7.3s2.1-4.1,3.7-5.8
			c1.6-1.7,3.4-2.9,5.4-3.8s4.2-1.4,6.5-1.4c2.5,0,4.6,0.5,6.5,1.5c1.8,1,3.1,2.7,3.9,5.1c0.8,2.4,0.9,5.7,0.2,9.9
			c-0.5,3.4-1.5,6.4-2.8,8.9s-2.9,4.4-4.9,5.7C230.4,45.5,228.2,46.2,225.6,46.2z M230.5,35.8c1.2,0,2.2-0.3,3-0.9
			c0.9-0.6,1.5-1.4,2-2.5s0.7-2.4,0.7-3.8c0-1.5-0.4-2.7-1.3-3.6c-0.8-0.9-2-1.4-3.5-1.4c-1.1,0-2.1,0.3-3,0.9s-1.6,1.4-2,2.5
			c-0.5,1.1-0.7,2.4-0.7,3.8c0,1.5,0.4,2.7,1.3,3.6C227.9,35.4,229,35.8,230.5,35.8z M233.6,45.6l-2-2l2.9-2.3l2.2-11.7l1.7-11.5
			l0.9-4.4l11.2-2l2,2l-6.4,31.9H233.6z"/>
	</g>
</g>
<g>
	<g>
		<path class="st2" d="M41,3.5c0.5,0.5,1.5,1.5,2,2l-5,10c-1.6-1-3.4-1.8-5.3-2.3c-1.9-0.5-3.9-0.8-5.9-0.8c-1.3,0-2.4,0.1-3.3,0.4
			c-0.9,0.3-1.6,0.6-2,1s-0.7,0.9-0.7,1.3c0,0.6,0.4,1.1,1,1.5c0.7,0.4,1.6,0.8,2.8,1c1.2,0.3,2.4,0.6,3.8,0.9s2.8,0.7,4.1,1.2
			c1.4,0.5,2.7,1.1,3.8,1.9c1.2,0.8,2.1,1.8,2.8,3s1,2.7,1,4.5c0,3-0.8,5.7-2.5,8s-4.1,4.1-7.1,5.3c-3,1.5-6.7,2.1-10.9,2.1
			c-2.4,0-4.7-0.2-6.9-0.5s-4.2-0.8-6-1.5c-1.8-0.6-3.4-1.3-4.7-2.1l-2-2l7.3-8.1c1.5,0.9,3,1.6,4.6,2.1c1.5,0.6,3.1,1,4.6,1.3
			s3.1,0.4,4.6,0.4c1.2,0,2.2-0.1,3-0.3s1.4-0.5,1.8-0.8c0.4-0.4,0.6-0.8,0.6-1.3c0-0.6-0.3-1.1-1-1.5s-1.6-0.7-2.8-1
			c-1.1-0.3-2.4-0.6-3.8-1c-1.4-0.3-2.8-0.8-4.2-1.3s-2.7-1.2-3.8-2s-2.1-1.8-2.8-3.1c-0.7-1.2-1-2.8-1-4.5c0-3.1,0.8-5.8,2.5-8.1
			s4-4.1,7.1-5.3c3.1-1.3,6.8-1.9,11-1.9"/>
		<path class="st2" d="M39,54.9l-2-2l8.2-41.2l12.6-2l2.2,2L59.1,16l-2.2,11.7l-1.7,11.5l-3.1,15.7H39z M64.2,44.2
			c-2.4,0-4.6-0.5-6.4-1.5s-3.2-2.7-4-5.1c-0.8-2.4-0.9-5.7-0.2-9.9c0.6-3.5,1.5-6.4,2.8-8.9s2.9-4.4,4.9-5.7s4.2-2,6.8-2
			c2.1,0,4.2,0.6,6.2,1.7s3.7,2.8,5,5s2,4.9,2,8c0,2.6-0.4,5-1.3,7.3c-0.9,2.2-2.1,4.2-3.7,5.8c-1.6,1.7-3.4,2.9-5.4,3.8
			C68.7,43.7,66.5,44.2,64.2,44.2z M62.1,33.8c1.2,0,2.2-0.3,3-0.9c0.9-0.6,1.5-1.4,2-2.5s0.7-2.4,0.7-3.8c0-1.5-0.4-2.7-1.3-3.6
			c-0.8-0.9-2-1.4-3.5-1.4c-1.1,0-2.1,0.3-3,0.9s-1.6,1.4-2,2.5c-0.5,1.1-0.7,2.4-0.7,3.8c0,1.5,0.4,2.7,1.3,3.6
			C59.4,33.4,60.6,33.8,62.1,33.8z"/>
		<path class="st2" d="M101.1,44.2c-3.5,0-6.6-0.6-9.2-1.8s-4.7-2.9-6.1-5.1c-1.5-2.2-2.2-4.8-2.2-7.8c0-3.5,0.8-6.6,2.4-9.4
			s3.9-4.9,6.9-6.5s6.4-2.4,10.4-2.4c3.4,0,6.3,0.6,8.7,1.8c2.4,1.2,4.3,2.9,5.5,5c1.3,2.1,1.9,4.5,1.9,7.3c0,1-0.1,1.9-0.2,2.9
			c-0.1,0.9-0.3,1.8-0.5,2.7H93.9l1.2-6.4h17.5l-5.5,1.7c0.3-1.2,0.3-2.3,0-3.2c-0.3-0.9-0.9-1.6-1.7-2c-0.8-0.5-1.7-0.7-2.9-0.7
			c-1.6,0-2.9,0.4-3.8,1.3s-1.6,2-2,3.3c-0.4,1.4-0.6,2.8-0.6,4.3c0,2,0.5,3.4,1.6,4.2s2.7,0.8,4.7,1.3c2.6,0.6,3.7-3.9,4.9-4.3
			c2,2,0,0,2,2l5.5,8c-2.2,1.5-4.4,2.5-6.8,3.1C105.8,43.9,103.5,44.2,101.1,44.2z"/>
		<path class="st2" d="M138.6,44.2c-3.5,0-6.5-0.6-9.2-1.8c-2.6-1.2-4.6-2.9-6.1-5.2c-1.4-2.2-2.2-4.8-2.2-7.8
			c0-3.5,0.9-6.6,2.6-9.4s4.1-4.9,7.1-6.5c3-1.6,6.5-2.4,10.4-2.4c3.8,0,7.1,0.8,9.9,2.5c2.8,1.7,4.8,3.9,5.9,6.8l-11.2,5.1
			c-2-2,0,0-2-2c-0.2-0.2,1,0.1-0.2-1.1c-0.8-0.8-1.9-0.9-3.1-0.9c-1.2,0-2.2,0.3-3.1,0.9c-0.9,0.6-1.7,1.4-2.2,2.5
			c-0.5,1-0.8,2.3-0.8,3.7c0,1.5,0.4,2.8,1.3,3.7c0.9,1,2.1,1.5,3.7,1.5c1.3,0,2.4-0.3,3.4-0.9c1-0.6,1.8-1.7,2.6-3.1l7.6,3.6l2,2
			c-1.6,2.8-3.8,5-6.6,6.5C145.7,43.4,142.4,44.2,138.6,44.2z"/>
		<path class="st2" d="M156.8,23.1l-2-2l3.9-7.6l22.1-2l2,2l-1.9,9.6H156.8z M170.9,44.2c-2.7,0-5-0.5-6.9-1.5s-3.2-2.5-4-4.5
			s-0.9-4.3-0.3-7.1L165,4.5l11.2-2l2,2L172.9,31c-0.2,1.1-0.1,1.9,0.3,2.4c0.4,0.5,1.1,0.8,2,0.8c0.5,0,0.4-2.7,0.9-2.8
			c2,2,0,0,2,2l1.5,8.9c-1.2,0.7-2.6,1.1-4.1,1.4C174,44.1,172.4,44.2,170.9,44.2z"/>
		<path class="st2" d="M209.8,9.1c2,2,0,0,2,2l-2.3,11.7c-0.5-0.1-1-0.1-1.5-0.2c-0.4,0-0.9-0.1-1.4-0.1c-2.2,0-3.9,0.5-5.3,1.5
			c-1.3,1-2.2,2.6-2.7,4.8l-3,14.7h-13.2l-2-2l0,0l8.4-29.8l10.4-2l2,2l-1.8,9l-1.2-2.6c1.3-2.5,3.2-4.3,5.5-5.4"/>
		<path class="st2" d="M223.6,44.2c-2.1,0-4.2-0.6-6.2-1.7s-3.7-2.8-5-5s-2-4.9-2-8c0-2.6,0.4-5.1,1.3-7.3s2.1-4.1,3.7-5.8
			c1.6-1.7,3.4-2.9,5.4-3.8s4.2-1.4,6.5-1.4c2.5,0,4.6,0.5,6.5,1.5c1.8,1,3.1,2.7,3.9,5.1c0.8,2.4,0.9,5.7,0.2,9.9
			c-0.5,3.4-1.5,6.4-2.8,8.9s-2.9,4.4-4.9,5.7C228.4,43.5,226.2,44.2,223.6,44.2z M228.5,33.8c1.2,0,2.2-0.3,3-0.9
			c0.9-0.6,1.5-1.4,2-2.5s0.7-2.4,0.7-3.8c0-1.5-0.4-2.7-1.3-3.6c-0.8-0.9-2-1.4-3.5-1.4c-1.1,0-2.1,0.3-3,0.9s-1.6,1.4-2,2.5
			c-0.5,1.1-0.7,2.4-0.7,3.8c0,1.5,0.4,2.7,1.3,3.6C225.9,33.4,227,33.8,228.5,33.8z M231.6,43.6l-2-2l2.9-2.3l2.2-11.7l1.7-11.5
			l0.9-4.4l11.2-2l2,2l-6.4,31.9H231.6z"/>
	</g>
</g>
<g>
	<g>
		<path class="st3" d="M17.6,42.5c-2.4,0-4.7-0.2-6.9-0.5s-4.2-0.8-6-1.5c-1.8-0.6-3.4-1.3-4.7-2.1l5.3-10.1c1.5,0.9,3,1.6,4.6,2.1
			c1.5,0.6,3.1,1,4.6,1.3s3.1,0.4,4.6,0.4c1.2,0,2.2-0.1,3-0.3s1.4-0.5,1.8-0.8c0.4-0.4,0.6-0.8,0.6-1.3c0-0.6-0.3-1.1-1-1.5
			s-1.6-0.7-2.8-1c-1.1-0.3-2.4-0.6-3.8-1c-1.4-0.3-2.8-0.8-4.2-1.3s-2.7-1.2-3.8-2s-2.1-1.8-2.8-3.1c-0.7-1.2-1-2.8-1-4.5
			c0-3.1,0.8-5.8,2.5-8.1s4-4.1,7.1-5.3c3.1-1.3,6.8-1.9,11-1.9c3,0,5.9,0.3,8.5,0.9s4.9,1.5,6.8,2.6l-5,10c-1.6-1-3.4-1.8-5.3-2.3
			c-1.9-0.5-3.9-0.8-5.9-0.8c-1.3,0-2.4,0.1-3.3,0.4c-0.9,0.3-1.6,0.6-2,1s-0.7,0.9-0.7,1.3c0,0.6,0.4,1.1,1,1.5
			c0.7,0.4,1.6,0.8,2.8,1c1.2,0.3,2.4,0.6,3.8,0.9c1.4,0.3,2.8,0.7,4.1,1.2c1.4,0.5,2.7,1.1,3.8,1.9c1.2,0.8,2.1,1.8,2.8,3
			s1,2.7,1,4.5c0,3-0.8,5.7-2.5,8s-4.1,4.1-7.1,5.3C25.5,41.9,21.8,42.5,17.6,42.5z"/>
		<path class="st3" d="M37,52.9l8.6-43.2H58L57.1,14l-2.2,11.7l-1.7,11.5l-3.1,15.7H37z M62.2,42.2c-2.4,0-4.6-0.5-6.4-1.5
			s-3.2-2.7-4-5.1c-0.8-2.4-0.9-5.7-0.2-9.9c0.6-3.5,1.5-6.4,2.8-8.9s2.9-4.4,4.9-5.7s4.2-2,6.8-2c2.1,0,4.2,0.6,6.2,1.7
			s3.7,2.8,5,5s2,4.9,2,8c0,2.6-0.4,5-1.3,7.3c-0.9,2.2-2.1,4.2-3.7,5.8c-1.6,1.7-3.4,2.9-5.4,3.8C66.7,41.7,64.5,42.2,62.2,42.2z
			 M60.1,31.8c1.2,0,2.2-0.3,3-0.9c0.9-0.6,1.5-1.4,2-2.5s0.7-2.4,0.7-3.8c0-1.5-0.4-2.7-1.3-3.6c-0.8-0.9-2-1.4-3.5-1.4
			c-1.1,0-2.1,0.3-3,0.9s-1.6,1.4-2,2.5c-0.5,1.1-0.7,2.4-0.7,3.8c0,1.5,0.4,2.7,1.3,3.6C57.4,31.4,58.6,31.8,60.1,31.8z"/>
		<path class="st3" d="M99.1,42.2c-3.5,0-6.6-0.6-9.2-1.8s-4.7-2.9-6.1-5.1c-1.5-2.2-2.2-4.8-2.2-7.8c0-3.5,0.8-6.6,2.4-9.4
			s3.9-4.9,6.9-6.5s6.4-2.4,10.4-2.4c3.4,0,6.3,0.6,8.7,1.8c2.4,1.2,4.3,2.9,5.5,5c1.3,2.1,1.9,4.5,1.9,7.3c0,1-0.1,1.9-0.2,2.9
			c-0.1,0.9-0.3,1.8-0.5,2.7H91.9l1.2-6.4h17.5l-5.5,1.7c0.3-1.2,0.3-2.3,0-3.2c-0.3-0.9-0.9-1.6-1.7-2c-0.8-0.5-1.7-0.7-2.9-0.7
			c-1.6,0-2.9,0.4-3.8,1.3s-1.6,2-2,3.3c-0.4,1.4-0.6,2.8-0.6,4.3c0,2,0.5,3.4,1.6,4.2c1.1,0.8,2.6,1.3,4.7,1.3
			c1.2,0,2.4-0.2,3.6-0.6c1.2-0.4,2.3-0.9,3.3-1.7l5.5,8c-2.2,1.5-4.4,2.5-6.8,3.1C103.8,41.9,101.5,42.2,99.1,42.2z"/>
		<path class="st3" d="M136.6,42.2c-3.5,0-6.5-0.6-9.2-1.8c-2.6-1.2-4.6-2.9-6.1-5.2c-1.4-2.2-2.2-4.8-2.2-7.8
			c0-3.5,0.9-6.6,2.6-9.4s4.1-4.9,7.1-6.5c3-1.6,6.5-2.4,10.4-2.4c3.8,0,7.1,0.8,9.9,2.5c2.8,1.7,4.8,3.9,5.9,6.8l-11.2,5.1
			c-0.5-1.5-1.3-2.5-2.2-3.1s-1.9-0.9-3.1-0.9c-1.2,0-2.2,0.3-3.1,0.9c-0.9,0.6-1.7,1.4-2.2,2.5c-0.5,1-0.8,2.3-0.8,3.7
			c0,1.5,0.4,2.8,1.3,3.7c0.9,1,2.1,1.5,3.7,1.5c1.3,0,2.4-0.3,3.4-0.9s1.8-1.7,2.6-3.1l9.6,5.6c-1.6,2.8-3.8,5-6.6,6.5
			C143.7,41.4,140.4,42.2,136.6,42.2z"/>
		<path class="st3" d="M154.8,21.1l1.9-9.6h24.1l-1.9,9.6H154.8z M168.9,42.2c-2.7,0-5-0.5-6.9-1.5s-3.2-2.5-4-4.5s-0.9-4.3-0.3-7.1
			L163,2.5h13.2L170.9,29c-0.2,1.1-0.1,1.9,0.3,2.4c0.4,0.5,1.1,0.8,2,0.8c0.5,0,1-0.1,1.5-0.2c0.4-0.1,0.9-0.3,1.4-0.6l1.5,8.9
			c-1.2,0.7-2.6,1.1-4.1,1.4C172,42.1,170.4,42.2,168.9,42.2z"/>
		<path class="st3" d="M180.4,41.5l6.4-31.8h12.4l-1.8,9l-1.2-2.6c1.3-2.5,3.2-4.3,5.5-5.4c2.4-1.1,5-1.6,8.1-1.6l-2.3,11.7
			c-0.5-0.1-1-0.1-1.5-0.2c-0.4,0-0.9-0.1-1.4-0.1c-2.2,0-3.9,0.5-5.3,1.5c-1.3,1-2.2,2.6-2.7,4.8l-3,14.7H180.4L180.4,41.5z"/>
		<path class="st3" d="M221.6,42.2c-2.1,0-4.2-0.6-6.2-1.7s-3.7-2.8-5-5s-2-4.9-2-8c0-2.6,0.4-5.1,1.3-7.3s2.1-4.1,3.7-5.8
			c1.6-1.7,3.4-2.9,5.4-3.8s4.2-1.4,6.5-1.4c2.5,0,4.6,0.5,6.5,1.5c1.8,1,3.1,2.7,3.9,5.1c0.8,2.4,0.9,5.7,0.2,9.9
			c-0.5,3.4-1.5,6.4-2.8,8.9s-2.9,4.4-4.9,5.7C226.4,41.5,224.2,42.2,221.6,42.2z M226.5,31.8c1.2,0,2.2-0.3,3-0.9
			c0.9-0.6,1.5-1.4,2-2.5s0.7-2.4,0.7-3.8c0-1.5-0.4-2.7-1.3-3.6c-0.8-0.9-2-1.4-3.5-1.4c-1.1,0-2.1,0.3-3,0.9s-1.6,1.4-2,2.5
			c-0.5,1.1-0.7,2.4-0.7,3.8c0,1.5,0.4,2.7,1.3,3.6C223.9,31.4,225,31.8,226.5,31.8z M229.6,41.6l0.9-4.3l2.2-11.7l1.7-11.5l0.9-4.4
			h13.2l-6.4,31.9H229.6z"/>
	</g>
</g>
</svg>
