<?xml version="1.0" encoding="utf-8"?>
<!-- Generator: Adobe Illustrator 26.1.0, SVG Export Plug-In . SVG Version: 6.00 Build 0)  -->
<svg version="1.1" id="Layer_1" xmlns="http://www.w3.org/2000/svg" xmlns:xlink="http://www.w3.org/1999/xlink" x="0px" y="0px"
	 viewBox="0 0 200 200" style="enable-background:new 0 0 200 200;" xml:space="preserve">
<style type="text/css">
	.st0{clip-path:url(#SVGID_00000129178154306421889390000010485518377161722016_);}
	.st1{fill:#FFFFFF;}
</style>
<g>
	<g>
		<g>
			<defs>
				<path id="SVGID_1_" d="M100,115c34.2,0,63.1,23,72.1,54.3c17.3-18,27.9-42.4,27.9-69.3C200,44.8,155.2,0,100,0S0,44.8,0,100
					c0,26.9,10.6,51.3,27.9,69.3C36.9,138,65.8,115,100,115z"/>
			</defs>
			<clipPath id="SVGID_00000174566210889310520390000012915216652981595309_">
				<use xlink:href="#SVGID_1_"  style="overflow:visible;"/>
			</clipPath>
			<g style="clip-path:url(#SVGID_00000174566210889310520390000012915216652981595309_);">
				<g>
					<defs>
						<rect id="SVGID_00000029017487114505367470000007504680571930879404_" x="-5" y="-5" width="210" height="179.3"/>
					</defs>
					<clipPath id="SVGID_00000031177792279761315670000016720726266631743908_">
						<use xlink:href="#SVGID_00000029017487114505367470000007504680571930879404_"  style="overflow:visible;"/>
					</clipPath>
					<g style="clip-path:url(#SVGID_00000031177792279761315670000016720726266631743908_);">
						
							<image style="overflow:visible;" width="439" height="375" xlink:href="9F3D9588.jpg"  transform="matrix(0.48 0 0 0.48 -5.28 -5.28)">
						</image>
					</g>
				</g>
			</g>
		</g>
	</g>
	<path class="st1" d="M100,200c28.3,0,53.9-11.8,72.1-30.7c-9-31.4-37.8-54.3-72.1-54.3s-63.1,23-72.1,54.3
		C46.1,188.2,71.7,200,100,200z"/>
</g>
<circle class="st1" cx="100" cy="77.5" r="37.5"/>
</svg>
