<?xml version="1.0" encoding="utf-8"?>
<!-- Generator: Adobe Illustrator 26.1.0, SVG Export Plug-In . SVG Version: 6.00 Build 0)  -->
<svg version="1.1" id="Layer_1" xmlns="http://www.w3.org/2000/svg" xmlns:xlink="http://www.w3.org/1999/xlink" x="0px" y="0px"
	 viewBox="0 0 200 200" style="enable-background:new 0 0 200 200;" xml:space="preserve">
<style type="text/css">
	.st0{opacity:0.8;fill:#1AFF2D;}
	.st1{fill:#FFFFFF;}
</style>
<circle class="st0" cx="100" cy="100" r="100"/>
<g>
	<path class="st1" d="M100,70.5c-2.9,0-5.3-0.9-7.2-2.8C90.9,65.9,90,63.7,90,61c0-2.5,0.9-4.7,2.8-6.5c1.9-1.8,4.3-2.8,7.2-2.8
		c2.9,0,5.3,0.9,7.2,2.6c1.9,1.7,2.8,3.9,2.8,6.6c0,2.7-0.9,4.9-2.8,6.8C105.4,69.6,103,70.5,100,70.5z M92.2,148.3V81.5h15.5v66.8
		H92.2z"/>
</g>
</svg>
