<?xml version="1.0" encoding="utf-8"?>
<!-- Generator: Adobe Illustrator 26.1.0, SVG Export Plug-In . SVG Version: 6.00 Build 0)  -->
<svg version="1.1" id="Layer_1" xmlns="http://www.w3.org/2000/svg" xmlns:xlink="http://www.w3.org/1999/xlink" x="0px" y="0px"
	 viewBox="0 0 200 200" style="enable-background:new 0 0 200 200;" xml:space="preserve">
<style type="text/css">
	.st0{opacity:0.8;fill:#FFC61A;}
	.st1{fill:#FFFFFF;}
</style>
<circle class="st0" cx="100" cy="100" r="100"/>
<g>
	<path class="st1" d="M93.8,117.9c0-3.7,0.6-6.9,1.9-9.8c1.2-2.8,2.8-5.3,4.7-7.5c1.9-2.2,3.9-4.2,6.1-6.2c2.1-1.9,4.2-3.8,6.1-5.5
		c1.9-1.8,3.4-3.7,4.6-5.7s1.8-4.2,1.8-6.8c0-4.2-1.7-7.6-5-10.1c-3.4-2.5-8-3.8-13.9-3.8c-5.3,0-10,1-14.1,2.9
		c-4.1,2-7.5,4.8-10.2,8.5l-14.4-9.5c4.1-5.7,9.5-10.2,16.4-13.4c6.8-3.2,14.8-4.9,24-4.9c7.4,0,13.9,1.1,19.4,3.2
		c5.5,2.2,9.8,5.2,12.9,9.3s4.7,8.9,4.7,14.6c0,4.2-0.6,7.8-1.8,10.7c-1.2,3-2.8,5.5-4.7,7.8c-1.9,2.2-4,4.4-6.3,6.3
		c-2.2,1.9-4.3,3.9-6.3,5.8s-3.6,4-4.8,6.2c-1.3,2.2-1.9,4.8-1.9,7.7H93.8V117.9z M103.4,153.8c-3.4,0-6.2-1.1-8.5-3.5
		c-2.2-2.3-3.4-5-3.4-8.2s1.1-5.9,3.4-8.2s5.1-3.4,8.5-3.4c3.6,0,6.5,1.1,8.7,3.4c2.2,2.2,3.3,5,3.3,8.2s-1.1,6-3.3,8.2
		C109.9,152.6,107,153.8,103.4,153.8z"/>
</g>
</svg>
