<?xml version="1.0" encoding="utf-8"?>
<!-- Generator: Adobe Illustrator 26.1.0, SVG Export Plug-In . SVG Version: 6.00 Build 0)  -->
<svg version="1.1" id="Layer_1" xmlns="http://www.w3.org/2000/svg" xmlns:xlink="http://www.w3.org/1999/xlink" x="0px" y="0px"
	 viewBox="0 0 200 200" style="enable-background:new 0 0 200 200;" xml:space="preserve">
<style type="text/css">
	.st0{opacity:0.8;fill:#FFC61A;}
	.st1{fill:#FFFFFF;}
</style>
<circle class="st0" cx="100" cy="100" r="100"/>
<g>
	<path class="st1" d="M36.5,94.9V84.4h80.7v10.5H36.5z M36.5,115.6v-10.5h80.7v10.5H36.5z M107.4,154c-7.9,0-15.3-1.3-22.1-4
		c-6.9-2.6-12.8-6.4-17.9-11.3c-5.1-4.9-9-10.6-11.8-17.1c-2.8-6.5-4.3-13.7-4.3-21.6s1.4-15.1,4.3-21.6c2.8-6.5,6.8-12.2,11.8-17.1
		s11-8.7,17.9-11.3c6.8-2.6,14.2-4,22.1-4c8.8,0,16.7,1.5,23.8,4.4c7.1,3,13,7.3,17.9,13.1l-12.5,11.9c-3.8-4.1-8.1-7.2-12.8-9.2
		s-9.8-3.1-15.3-3.1S98,64,93.4,65.8c-4.6,1.8-8.5,4.4-11.9,7.7c-3.4,3.3-6,7.2-7.8,11.7S71,94.7,71,100.1s0.9,10.4,2.7,14.9
		c1.8,4.5,4.4,8.4,7.8,11.7s7.4,5.9,11.9,7.7s9.6,2.7,15.1,2.7s10.6-1,15.3-3.1c4.7-2,8.9-5.2,12.8-9.4l12.5,11.8
		c-4.9,5.8-10.9,10.2-17.9,13.2C124.1,152.5,116.2,154,107.4,154z"/>
</g>
</svg>
